<svg width="375" height="142" viewBox="0 0 375 142" fill="none" xmlns="http://www.w3.org/2000/svg">
<path d="M-16 1.00012C13.8206 52.7877 40.4076 96.0267 71.1263 99.4957C101.845 102.965 114.42 70.6284 135.618 70.6284C156.816 70.6284 167.055 85.4957 173.882 99.4957C180.708 113.496 194.361 141 220.049 141C245.738 141 258.313 111.761 264.78 99.4957C271.247 87.2302 288.493 61.7081 312.565 61.7081C336.637 61.7081 343.823 76.0287 366.637 74.2214C389.452 72.414 397.536 50.4338 421.248 50.4338C444.961 50.4338 434.157 67.0953 462.746 67.2833C491.335 67.4713 495.198 47.2963 512.838 31.4958C530.478 15.6954 548 33.9891 548 33.9891" stroke="url(#paint0_linear_154_323)" stroke-width="2" stroke-linecap="round" stroke-linejoin="round"/>
<defs>
<linearGradient id="paint0_linear_154_323" x1="-16" y1="1.00012" x2="548" y2="1.00012" gradientUnits="userSpaceOnUse">
<stop stop-color="#FF59F8"/>
<stop offset="0.197917" stop-color="#AE72FF"/>
<stop offset="0.40625" stop-color="#90E9ED"/>
<stop offset="0.619792" stop-color="#5CD167"/>
<stop offset="0.825321" stop-color="#FFEE00"/>
</linearGradient>
</defs>
</svg>
