<svg width="375" height="486" viewBox="0 0 375 486" fill="none" xmlns="http://www.w3.org/2000/svg">
<path opacity="0.5" d="M-517 1C-386.278 210 -311.66 293.706 -177 307.706C-42.3404 321.706 11.077 282 104 282C196.923 282 285.446 342 315.37 398.5C345.294 455 390.89 484.206 503.5 484.206C616.11 484.206 685.487 448 713.836 398.5C742.186 349 817.784 246 923.307 246C1028.83 246 1135.49 338 1235.5 330.706C1335.51 323.412 1377.55 177.206 1481.5 177.206C1585.45 177.206 1539.65 281.241 1664.97 282C1790.29 282.759 1796.23 180.766 1873.55 117C1950.88 53.234 1955.37 134.134 1955.37 134.134" stroke="url(#paint0_linear_154_886)" stroke-width="2" stroke-linecap="round" stroke-linejoin="round"/>
<defs>
<linearGradient id="paint0_linear_154_886" x1="-517" y1="1" x2="1955.37" y2="1" gradientUnits="userSpaceOnUse">
<stop stop-color="#FF59F8"/>
<stop offset="0.197917" stop-color="#AE72FF"/>
<stop offset="0.40625" stop-color="#90E9ED"/>
<stop offset="0.619792" stop-color="#5CD167"/>
<stop offset="0.825321" stop-color="#FFEE00"/>
</linearGradient>
</defs>
</svg>
