<svg width="98" height="59" viewBox="0 0 98 59" fill="none" xmlns="http://www.w3.org/2000/svg">
<path d="M7.536 58.28C6.016 58.28 4.784 58.032 3.84 57.536C2.896 57.04 2.216 56.472 1.8 55.832C1.4 55.192 1.2 54.656 1.2 54.224C1.2 54.08 1.264 53.952 1.392 53.84C1.52 53.728 1.664 53.672 1.824 53.672H4.872C5.032 53.672 5.152 53.704 5.232 53.768C5.328 53.848 5.416 53.976 5.496 54.152C5.656 54.52 5.872 54.808 6.144 55.016C6.416 55.24 6.84 55.352 7.416 55.352C8.152 55.352 8.696 55.168 9.048 54.8C9.4 54.448 9.576 53.848 9.576 53V51.392C8.76 52.288 7.592 52.736 6.072 52.736C4.456 52.736 3.216 52.264 2.352 51.32C1.504 50.36 1.04 48.976 0.96 47.168L0.936 46.52C0.936 44.584 1.368 43.064 2.232 41.96C3.096 40.84 4.376 40.28 6.072 40.28C6.888 40.28 7.608 40.44 8.232 40.76C8.856 41.064 9.384 41.48 9.816 42.008V41.12C9.816 40.944 9.872 40.8 9.984 40.688C10.112 40.576 10.256 40.52 10.416 40.52H13.176C13.352 40.52 13.496 40.584 13.608 40.712C13.736 40.824 13.8 40.96 13.8 41.12V52.664C13.8 54.488 13.256 55.88 12.168 56.84C11.08 57.8 9.536 58.28 7.536 58.28ZM7.368 49.616C8.088 49.616 8.624 49.4 8.976 48.968C9.328 48.52 9.528 47.96 9.576 47.288C9.592 47.176 9.6 46.928 9.6 46.544C9.6 46.176 9.592 45.936 9.576 45.824C9.544 45.152 9.344 44.6 8.976 44.168C8.624 43.72 8.088 43.496 7.368 43.496C6.616 43.496 6.072 43.72 5.736 44.168C5.4 44.616 5.216 45.232 5.184 46.016L5.16 46.544C5.16 47.488 5.32 48.24 5.64 48.8C5.96 49.344 6.536 49.616 7.368 49.616ZM17.2029 38.72C17.0269 38.72 16.8829 38.664 16.7709 38.552C16.6589 38.44 16.6029 38.296 16.6029 38.12V35.96C16.6029 35.784 16.6589 35.64 16.7709 35.528C16.8829 35.416 17.0269 35.36 17.2029 35.36H20.0829C20.2589 35.36 20.4029 35.416 20.5149 35.528C20.6269 35.64 20.6829 35.784 20.6829 35.96V38.12C20.6829 38.296 20.6269 38.44 20.5149 38.552C20.4029 38.664 20.2589 38.72 20.0829 38.72H17.2029ZM17.2269 53C17.0509 53 16.9069 52.944 16.7949 52.832C16.6829 52.72 16.6269 52.576 16.6269 52.4V41.12C16.6269 40.944 16.6829 40.8 16.7949 40.688C16.9069 40.576 17.0509 40.52 17.2269 40.52H20.0589C20.2349 40.52 20.3789 40.576 20.4909 40.688C20.6029 40.8 20.6589 40.944 20.6589 41.12V52.4C20.6589 52.56 20.6029 52.704 20.4909 52.832C20.3789 52.944 20.2349 53 20.0589 53H17.2269ZM25.5101 53C25.3501 53 25.2061 52.944 25.0781 52.832C24.9661 52.704 24.9101 52.56 24.9101 52.4V43.664H23.0861C22.9101 43.664 22.7661 43.608 22.6541 43.496C22.5421 43.384 22.4861 43.24 22.4861 43.064V41.12C22.4861 40.944 22.5421 40.8 22.6541 40.688C22.7661 40.576 22.9101 40.52 23.0861 40.52H24.9101V39.752C24.9101 38.168 25.3581 37.024 26.2541 36.32C27.1661 35.6 28.4701 35.24 30.1661 35.24H32.0381C32.2141 35.24 32.3581 35.296 32.4701 35.408C32.5821 35.52 32.6381 35.664 32.6381 35.84V37.784C32.6381 37.944 32.5821 38.088 32.4701 38.216C32.3581 38.328 32.2141 38.384 32.0381 38.384H30.3581C29.8301 38.384 29.4541 38.512 29.2301 38.768C29.0061 39.008 28.8941 39.376 28.8941 39.872V40.52H31.7981C31.9741 40.52 32.1181 40.576 32.2301 40.688C32.3421 40.8 32.3981 40.944 32.3981 41.12V43.064C32.3981 43.224 32.3421 43.368 32.2301 43.496C32.1181 43.608 31.9741 43.664 31.7981 43.664H28.8941V52.4C28.8941 52.56 28.8381 52.704 28.7261 52.832C28.6141 52.944 28.4701 53 28.2941 53H25.5101ZM33.7007 53C33.5407 53 33.3967 52.944 33.2687 52.832C33.1567 52.704 33.1007 52.56 33.1007 52.4V49.352C33.1007 49.176 33.1567 49.032 33.2687 48.92C33.3967 48.808 33.5407 48.752 33.7007 48.752H36.7487C36.9247 48.752 37.0687 48.808 37.1807 48.92C37.2927 49.032 37.3487 49.176 37.3487 49.352V52.4C37.3487 52.56 37.2927 52.704 37.1807 52.832C37.0687 52.944 36.9247 53 36.7487 53H33.7007Z" fill="#7421B0"/>
<path opacity="0.12" d="M35.072 55.56C32.032 55.56 29.568 55.064 27.68 54.072C25.792 53.08 24.432 51.944 23.6 50.664C22.8 49.384 22.4 48.312 22.4 47.448C22.4 47.16 22.528 46.904 22.784 46.68C23.04 46.456 23.328 46.344 23.648 46.344H29.744C30.064 46.344 30.304 46.408 30.464 46.536C30.656 46.696 30.832 46.952 30.992 47.304C31.312 48.04 31.744 48.616 32.288 49.032C32.832 49.48 33.68 49.704 34.832 49.704C36.304 49.704 37.392 49.336 38.096 48.6C38.8 47.896 39.152 46.696 39.152 45V41.784C37.52 43.576 35.184 44.472 32.144 44.472C28.912 44.472 26.432 43.528 24.704 41.64C23.008 39.72 22.08 36.952 21.92 33.336L21.872 32.04C21.872 28.168 22.736 25.128 24.464 22.92C26.192 20.68 28.752 19.56 32.144 19.56C33.776 19.56 35.216 19.88 36.464 20.52C37.712 21.128 38.768 21.96 39.632 23.016V21.24C39.632 20.888 39.744 20.6 39.968 20.376C40.224 20.152 40.512 20.04 40.832 20.04H46.352C46.704 20.04 46.992 20.168 47.216 20.424C47.472 20.648 47.6 20.92 47.6 21.24V44.328C47.6 47.976 46.512 50.76 44.336 52.68C42.16 54.6 39.072 55.56 35.072 55.56ZM34.736 38.232C36.176 38.232 37.248 37.8 37.952 36.936C38.656 36.04 39.056 34.92 39.152 33.576C39.184 33.352 39.2 32.856 39.2 32.088C39.2 31.352 39.184 30.872 39.152 30.648C39.088 29.304 38.688 28.2 37.952 27.336C37.248 26.44 36.176 25.992 34.736 25.992C33.232 25.992 32.144 26.44 31.472 27.336C30.8 28.232 30.432 29.464 30.368 31.032L30.32 32.088C30.32 33.976 30.64 35.48 31.28 36.6C31.92 37.688 33.072 38.232 34.736 38.232ZM54.4059 16.44C54.0539 16.44 53.7659 16.328 53.5419 16.104C53.3179 15.88 53.2059 15.592 53.2059 15.24V10.92C53.2059 10.568 53.3179 10.28 53.5419 10.056C53.7659 9.832 54.0539 9.72 54.4059 9.72H60.1659C60.5179 9.72 60.8059 9.832 61.0299 10.056C61.2539 10.28 61.3659 10.568 61.3659 10.92V15.24C61.3659 15.592 61.2539 15.88 61.0299 16.104C60.8059 16.328 60.5179 16.44 60.1659 16.44H54.4059ZM54.4539 45C54.1019 45 53.8139 44.888 53.5899 44.664C53.3659 44.44 53.2539 44.152 53.2539 43.8V21.24C53.2539 20.888 53.3659 20.6 53.5899 20.376C53.8139 20.152 54.1019 20.04 54.4539 20.04H60.1179C60.4699 20.04 60.7579 20.152 60.9819 20.376C61.2059 20.6 61.3179 20.888 61.3179 21.24V43.8C61.3179 44.12 61.2059 44.408 60.9819 44.664C60.7579 44.888 60.4699 45 60.1179 45H54.4539ZM71.0203 45C70.7003 45 70.4123 44.888 70.1562 44.664C69.9323 44.408 69.8203 44.12 69.8203 43.8V26.328H66.1723C65.8203 26.328 65.5323 26.216 65.3083 25.992C65.0843 25.768 64.9723 25.48 64.9723 25.128V21.24C64.9723 20.888 65.0843 20.6 65.3083 20.376C65.5323 20.152 65.8203 20.04 66.1723 20.04H69.8203V18.504C69.8203 15.336 70.7163 13.048 72.5083 11.64C74.3323 10.2 76.9403 9.48 80.3323 9.48H84.0763C84.4283 9.48 84.7163 9.592 84.9403 9.816C85.1643 10.04 85.2763 10.328 85.2763 10.68V14.568C85.2763 14.888 85.1643 15.176 84.9403 15.432C84.7163 15.656 84.4283 15.768 84.0763 15.768H80.7163C79.6603 15.768 78.9083 16.024 78.4603 16.536C78.0123 17.016 77.7883 17.752 77.7883 18.744V20.04H83.5963C83.9483 20.04 84.2363 20.152 84.4603 20.376C84.6843 20.6 84.7963 20.888 84.7963 21.24V25.128C84.7963 25.448 84.6843 25.736 84.4603 25.992C84.2363 26.216 83.9483 26.328 83.5963 26.328H77.7883V43.8C77.7883 44.12 77.6763 44.408 77.4523 44.664C77.2283 44.888 76.9403 45 76.5883 45H71.0203ZM87.4014 45C87.0814 45 86.7934 44.888 86.5374 44.664C86.3134 44.408 86.2014 44.12 86.2014 43.8V37.704C86.2014 37.352 86.3134 37.064 86.5374 36.84C86.7934 36.616 87.0814 36.504 87.4014 36.504H93.4974C93.8494 36.504 94.1374 36.616 94.3614 36.84C94.5854 37.064 94.6974 37.352 94.6974 37.704V43.8C94.6974 44.12 94.5854 44.408 94.3614 44.664C94.1374 44.888 93.8494 45 93.4974 45H87.4014Z" fill="#7421B0"/>
</svg>
